<?xml version="1.0" encoding="UTF-8" standalone="no"?>
<!-- Created with Inkscape (http://www.inkscape.org/) -->

<svg
   xmlns:dc="http://purl.org/dc/elements/1.1/"
   xmlns:cc="http://creativecommons.org/ns#"
   xmlns:rdf="http://www.w3.org/1999/02/22-rdf-syntax-ns#"
   xmlns:svg="http://www.w3.org/2000/svg"
   xmlns="http://www.w3.org/2000/svg"
   xmlns:sodipodi="http://sodipodi.sourceforge.net/DTD/sodipodi-0.dtd"
   xmlns:inkscape="http://www.inkscape.org/namespaces/inkscape"
   width="721.5235"
   height="354.09598"
   viewBox="0 0 190.90308 93.687901"
   version="1.1"
   id="svg8"
   inkscape:version="0.92.3 (2405546, 2018-03-11)"
   sodipodi:docname="drawing-1.svg">
  <defs
     id="defs2">
    <inkscape:path-effect
       fuse_tolerance="0"
       vertical_pattern="false"
       prop_units="false"
       tang_offset="0"
       normal_offset="0"
       spacing="0"
       scale_y_rel="false"
       prop_scale="0.26458333"
       copytype="single_stretched"
       pattern="M 0,5 C 0,2.24 2.24,0 5,0 7.76,0 10,2.24 10,5 10,7.76 7.76,10 5,10 2.24,10 0,7.76 0,5 Z"
       is_visible="true"
       id="path-effect4543"
       effect="skeletal" />
    <inkscape:path-effect
       fuse_tolerance="0"
       vertical_pattern="false"
       prop_units="false"
       tang_offset="0"
       normal_offset="0"
       spacing="0"
       scale_y_rel="false"
       prop_scale="0.026229255"
       copytype="single_stretched"
       pattern="M 0,5 C 0,2.24 2.24,0 5,0 7.76,0 10,2.24 10,5 10,7.76 7.76,10 5,10 2.24,10 0,7.76 0,5 Z"
       is_visible="true"
       id="path-effect4539"
       effect="skeletal" />
    <clipPath
       id="clipPath4515"
       clipPathUnits="userSpaceOnUse">
      <path
         inkscape:connector-curvature="0"
         id="path4517"
         d="m -252.56423,228.73819 c -0.31212,-0.1356 -0.90744,-0.69243 -1.32292,-1.2374 -0.90195,-1.18306 -0.99063,-2.83578 -0.23692,-4.41603 0.65924,-1.38218 2.46474,-2.80286 3.8854,-3.0573 0.99746,-0.17864 1.07063,-0.23371 0.54435,-0.40969 -0.36892,-0.12336 -0.75454,-0.0817 -0.98061,0.10591 -0.6024,0.49995 -0.86985,0.0863 -0.66575,-1.02969 l 0.1902,-1.04016 -0.91427,0.0516 c -0.50891,0.0287 -1.06134,0.2527 -1.24603,0.50529 -0.41332,0.56523 -1.0281,0.5822 -1.47744,0.0408 -0.51734,-0.62334 -7.13162,-0.43653 -7.85927,0.22196 -0.62011,0.56121 -1.54333,0.59222 -1.74807,0.0587 -0.12536,-0.32668 -0.80886,-0.39687 -3.86474,-0.39687 -3.45538,0 -3.71248,0.0344 -3.71248,0.49677 0,0.27322 -0.19378,0.6576 -0.43066,0.85417 -0.37444,0.31077 -0.52768,0.24117 -1.17427,-0.53334 l -0.74364,-0.89074 -3.52208,0.16947 c -6.56802,0.31604 -15.1466,0.56513 -19.4632,0.56513 -2.36471,0 -4.29948,0.0893 -4.29948,0.19843 0,0.10914 -0.45397,0.19844 -1.00883,0.19844 -0.7693,0 -1.18451,-0.18336 -1.74868,-0.77225 -0.40693,-0.42474 -0.6654,-0.89276 -0.57436,-1.04005 0.091,-0.14729 0.0262,-0.35396 -0.14428,-0.45926 -0.21069,-0.13021 -0.23984,-0.0726 -0.0911,0.18016 0.35261,0.59926 -0.93766,-0.61645 -1.51723,-1.42956 -0.82082,-1.15158 -0.34012,-1.16366 0.9335,-0.0235 2.34178,2.0965 2.09918,2.00288 4.76753,1.83946 2.81641,-0.17249 9.38585,-0.47752 9.9668,-0.46278 0.21828,0.006 2.18281,-0.11094 4.36563,-0.25881 2.18278,-0.14787 5.2189,-0.30787 6.74687,-0.35552 1.52797,-0.0477 3.79016,-0.1522 5.02708,-0.23226 1.23693,-0.0801 5.40412,-0.27029 9.26042,-0.42269 3.8563,-0.1524 7.90442,-0.3251 8.99584,-0.38377 1.0914,-0.0587 4.66327,-0.19132 7.9375,-0.29477 3.27421,-0.10342 6.42937,-0.21876 7.01145,-0.25627 0.58209,-0.0375 2.92485,-0.0915 5.20613,-0.11996 2.68266,-0.0334 4.28422,-0.16048 4.53407,-0.35964 0.31018,-0.24729 0.35184,-0.74412 0.21139,-2.52198 -0.13196,-1.67055 -0.0928,-2.2455 0.15932,-2.34226 0.2007,-0.077 0.31805,-0.54016 0.29379,-1.15942 -0.036,-0.91979 -0.11431,-1.0321 -0.72463,-1.03982 -9.06096,-0.11478 -16.61452,-0.36031 -16.81058,-0.54645 -0.31088,-0.29515 -0.76341,-0.27795 9.37948,-0.35663 4.58389,-0.0356 8.55382,-0.1596 8.82203,-0.27568 0.4563,-0.19746 0.4526,-0.14227 -0.0578,0.85811 -0.52458,1.02827 -0.52623,1.06411 -0.043,0.93774 0.27636,-0.0723 0.44577,-0.27918 0.37646,-0.45982 -0.0693,-0.18062 0.058,-0.48112 0.28289,-0.6678 0.34026,-0.28238 0.40891,-0.26729 0.40891,0.0899 0,0.23611 -0.12609,0.42927 -0.28019,0.42927 -0.15412,0 -0.2081,0.11665 -0.11998,0.25924 0.0881,0.14257 -0.0343,0.82718 -0.27212,1.52136 -0.39288,1.14698 -0.71855,4.00448 -0.68665,6.02461 0.0119,0.75294 -0.007,0.76735 -0.37259,0.28017 -0.21182,-0.28248 -0.38513,-0.37178 -0.38513,-0.19845 0,0.40357 -1.51014,0.41497 -1.64432,0.0124 -0.12225,-0.36676 -2.05985,0.19259 -2.05985,0.59465 0,0.13796 0.35128,0.0692 0.78061,-0.15281 1.01012,-0.52235 1.07147,-0.51264 1.07147,0.1696 0,0.31529 0.0655,0.50775 0.14554,0.42772 0.14595,-0.14594 1.26487,0.0563 2.49822,0.45154 0.59082,0.18933 0.62184,0.16606 0.29833,-0.22374 -0.23537,-0.28362 -0.25768,-0.43504 -0.0641,-0.43504 0.16334,0 0.28411,-0.0893 0.26838,-0.19844 -0.0835,-0.57901 0.41406,-1.38906 0.85321,-1.38906 0.27408,0 0.49831,0.11906 0.49831,0.26458 0,0.14551 -0.18562,0.26458 -0.41249,0.26458 -0.24442,0 -0.33556,0.12446 -0.22371,0.30547 0.12378,0.20026 0.0718,0.23314 -0.15099,0.0955 -0.22634,-0.13988 -0.29932,-0.0873 -0.21859,0.15756 0.0667,0.20215 0.40951,0.40873 0.76192,0.45905 0.3524,0.0503 0.7923,0.216 0.97753,0.36816 0.25759,0.2116 0.29905,0.15898 0.17628,-0.22379 -0.13636,-0.42522 -0.0812,-0.41097 0.36708,0.0949 0.54685,0.61706 1.48062,0.79196 1.76569,0.33074 0.0899,-0.14552 0.39162,-0.26459 0.67043,-0.26459 0.27881,0 1.27035,-0.34965 2.2034,-0.777 1.65204,-0.75664 2.8147,-1.89289 2.8147,-2.75073 0,-0.22184 0.41325,-0.84152 0.91834,-1.37707 0.77356,-0.8202 0.8257,-0.94452 0.33073,-0.7885 -0.32318,0.10187 -1.69871,0.22745 -3.05672,0.27905 -1.35801,0.0516 -2.60816,0.19777 -2.77812,0.3248 -0.16996,0.12704 -0.64424,0.25189 -1.05396,0.27744 -0.65858,0.0411 -0.72318,-0.0224 -0.55719,-0.54733 0.46567,-1.47255 0.85088,-1.73949 2.57536,-1.7847 2.57948,-0.0676 2.56323,-0.0631 2.56323,-0.70755 0,-0.32696 0.2533,-0.83044 0.56288,-1.11887 0.41021,-0.38216 0.52438,-0.72587 0.42095,-1.26701 -0.0781,-0.40843 0.0197,-1.12959 0.21736,-1.60256 0.3862,-0.92433 0.94047,-1.07834 2.05433,-0.57083 0.48647,0.22165 0.99887,0.18664 2.19527,-0.15 0.85837,-0.24151 2.21551,-0.59522 3.01588,-0.78598 0.80035,-0.19077 2.34818,-0.59721 3.43957,-0.90319 1.09142,-0.30598 2.63923,-0.71914 3.43959,-0.91814 0.80036,-0.19899 1.57428,-0.40967 1.71979,-0.46818 0.14552,-0.0585 0.26458,0.0101 0.26458,0.15242 0,0.14233 -0.14511,0.28008 -0.32249,0.3061 -0.17736,0.026 -1.60611,0.46548 -3.175,0.97653 -2.5679,0.83647 -4.11335,1.30374 -7.69323,2.32606 l -1.13658,0.32457 0.60741,0.62469 c 0.33406,0.34358 0.82579,0.82912 1.09271,1.07897 0.67508,0.63192 1.94852,3.19995 2.16864,4.37325 0.10069,0.53671 0.21609,0.97585 0.25646,0.97585 0.23568,0 12.04422,-2.70464 12.7,-2.90882 0.43656,-0.13593 1.0914,-0.29966 1.45521,-0.36385 0.96635,-0.17049 6.50859,-1.45059 8.20209,-1.89445 1.46028,-0.38271 4.31996,-1.03587 5.55625,-1.26903 0.80981,-0.15274 5.50419,-1.13817 11.50938,-2.41601 2.47384,-0.52642 5.68854,-1.18297 7.14375,-1.45902 1.45519,-0.27604 5.38426,-1.05402 8.73125,-1.72884 3.34696,-0.67482 7.3058,-1.43863 8.79738,-1.69736 l 2.71199,-0.47042 v 0.61657 c 0,0.42726 -0.18278,0.6536 -0.59531,0.7372 -0.55174,0.11181 -5.90183,1.29926 -9.59116,2.12875 -0.87311,0.19631 -2.89719,0.66222 -4.4979,1.03537 -2.80289,0.65337 -11.80888,2.72925 -13.02789,3.00291 -0.32584,0.0732 -0.84536,0.54223 -1.15447,1.04238 -0.61758,0.99927 -1.37767,1.09565 -1.50746,0.19115 -0.0786,-0.54745 -0.11598,-0.54398 -3.55984,0.33072 -1.99826,0.50752 -3.57256,1.04859 -3.69675,1.27051 -0.63069,1.12698 -1.79215,1.45025 -1.79215,0.49881 0,-0.24093 -0.1743,-0.33766 -0.46301,-0.25693 -0.25467,0.0712 -1.77272,0.45326 -3.37343,0.84902 -2.4257,0.59972 -3.02065,0.8492 -3.57218,1.49787 l -0.66176,0.77831 -0.6355,-0.55117 c -1.19644,-1.03767 -1.52867,-0.52866 -0.3561,0.54557 0.40019,0.36664 1.2634,0.81793 1.91823,1.00288 1.42748,0.40317 1.73461,0.63521 2.54953,1.92613 0.83539,1.32333 0.89454,4.39326 0.10948,5.6808 -0.64492,1.05769 -1.07887,1.28803 -3.12576,1.65921 -2.8987,0.52564 -4.48447,-0.28269 -5.67915,-2.8949 -0.48603,-1.06268 -0.5133,-1.35389 -0.24661,-2.63317 0.32219,-1.54561 0.83626,-2.40172 0.83626,-1.39269 0,0.32014 -0.11906,0.58208 -0.26457,0.58208 -0.14553,0 -0.26459,0.29766 -0.26459,0.66146 0,0.36379 0.0893,0.6548 0.19843,0.64668 0.10915,-0.008 0.79375,-0.78028 1.52136,-1.71589 1.06236,-1.36608 1.55742,-1.77527 2.51355,-2.07769 l 1.19063,-0.3766 -1.54494,0.0645 c -0.84969,0.0355 -1.62361,0.1734 -1.71978,0.30654 -0.0962,0.13314 -0.46009,0.4802 -0.80868,0.77123 l -0.63381,0.52918 0.29573,-0.56419 c 0.16265,-0.3103 0.48583,-0.63714 0.71819,-0.7263 0.29813,-0.1144 0.36942,-0.33773 0.2422,-0.75874 -0.28847,-0.95469 -0.51436,-1.0497 -1.74079,-0.73206 -2.32336,0.60173 -3.45083,1.14209 -3.68878,1.76793 -0.26365,0.69346 -1.16562,0.83429 -1.40177,0.21886 -0.12968,-0.33795 -0.42181,-0.29291 -1.94654,0.30011 -0.98668,0.38375 -2.41439,0.91223 -3.17268,1.17441 -0.75829,0.26217 -2.24658,0.89014 -3.3073,1.39548 -1.5158,0.72214 -2.03872,1.12617 -2.4433,1.8877 -1.22205,2.30031 -4.18579,3.78392 -7.68735,3.84817 -6.26447,0.11495 -7.69753,0.0136 -8.62212,-0.60942 -0.49233,-0.33179 -1.041,-0.89735 -1.21926,-1.25677 -0.25365,-0.51146 -0.65709,-0.72008 -1.85595,-0.95971 -0.84251,-0.16841 -2.36526,-0.49377 -3.38392,-0.72303 -1.01864,-0.22923 -3.01294,-0.41887 -4.43177,-0.42139 -2.37872,-0.004 -2.57968,0.0354 -2.57968,0.50895 0,0.86902 -0.57696,0.94463 -1.20433,0.15783 -0.548,-0.68726 -0.72778,-0.73915 -2.66819,-0.77028 l -2.08061,-0.0334 v 0.75221 c 0,0.63186 0.15835,0.80665 0.98979,1.09247 2.22187,0.76385 2.98387,1.74103 3.27247,4.19664 0.21525,1.8313 -0.53445,3.57752 -1.89761,4.41999 -1.01453,0.62701 -4.33509,0.96355 -5.3134,0.53851 z m -49.63719,-9.99157 c -0.25466,-0.0666 -0.67138,-0.0666 -0.92604,0 -0.25467,0.0666 -0.0463,0.121 0.46302,0.121 0.50932,0 0.71768,-0.0545 0.46302,-0.121 z m 4.89844,-0.26844 c -0.32544,-0.0628 -0.92075,-0.0644 -1.32294,-0.004 -0.40217,0.0608 -0.13592,0.1122 0.59169,0.11419 0.7276,0.002 1.05666,-0.0478 0.73125,-0.11058 z m 12.17517,-0.53626 c -0.61407,-0.0555 -1.68563,-0.0562 -2.38125,-0.002 -0.69561,0.0548 -0.1932,0.10021 1.11649,0.10101 1.30969,8e-4 1.87881,-0.0439 1.26476,-0.0994 z m 4.35764,-0.26075 c -0.40018,-0.0606 -1.05503,-0.0606 -1.45521,0 -0.40018,0.0606 -0.0728,0.11022 0.7276,0.11022 0.80037,0 1.12779,-0.0496 0.72761,-0.11022 z m 8.60261,-0.26133 c -0.32544,-0.0628 -0.92075,-0.0644 -1.32292,-0.004 -0.40219,0.0608 -0.13594,0.11221 0.59166,0.1142 0.72761,0.002 1.05667,-0.0478 0.73126,-0.11057 z m 10.3151,-0.65895 c 0.38309,-0.39524 0.39451,-0.47772 0.0662,-0.47772 -0.21829,0 -0.39688,0.11907 -0.39688,0.26459 0,0.14552 -0.1786,0.26458 -0.39687,0.26458 -0.21829,0 -0.3969,0.0992 -0.3969,0.22049 0,0.38112 0.64201,0.22587 1.12449,-0.27194 z m 3.90261,0.15135 c 0,-0.3015 -0.0984,-0.35423 -0.33074,-0.17715 -0.18189,0.13867 -0.90238,0.23402 -1.60106,0.2119 -0.69868,-0.0221 -1.33078,0.0576 -1.40466,0.17714 -0.0739,0.11956 0.64657,0.21738 1.60106,0.21738 1.42439,0 1.7354,-0.0769 1.7354,-0.42927 z m 1.85268,-0.10087 c 0.30052,-0.48626 1.05773,-0.56946 1.05773,-0.11621 0,0.22812 -0.17375,0.30926 -0.46302,0.21621 -0.37748,-0.12143 -0.39203,-0.0987 -0.0788,0.12314 0.45475,0.32201 0.80637,0.16136 0.80637,-0.36842 0,-0.39906 0.88087,-0.39757 1.24996,0.002 0.11289,0.12224 -0.0694,0.15453 -0.40516,0.0717 -0.36747,-0.0906 -0.57358,-0.04 -0.51787,0.12711 0.0509,0.15271 0.64701,0.29218 1.32469,0.30991 0.9922,0.026 1.25699,-0.063 1.35982,-0.45693 0.0702,-0.26906 0.0574,-0.41892 -0.0285,-0.33304 -0.0859,0.0859 -0.30534,0.0324 -0.48768,-0.11897 -0.23273,-0.19314 -0.39013,-0.18027 -0.52826,0.0432 -0.12025,0.19456 -0.0851,0.2493 0.0905,0.14081 0.15794,-0.0976 0.36814,-0.0465 0.46711,0.11366 0.11646,0.18844 -0.0405,0.25775 -0.44474,0.19648 -0.34357,-0.0521 -0.60161,-0.2206 -0.57341,-0.37448 0.0317,-0.17322 -0.58751,-0.27724 -1.6256,-0.27303 -1.26895,0.005 -1.64463,0.0908 -1.54432,0.35224 0.0832,0.21684 -0.075,0.34543 -0.42491,0.34543 -0.30661,0 -0.55747,0.11833 -0.55747,0.26293 0,0.3754 1.0589,0.16426 1.32352,-0.26389 z m 5.42337,0.26555 c 0.0899,-0.14552 0.0374,-0.26458 -0.11669,-0.26458 -0.15411,0 -0.2802,0.11906 -0.2802,0.26458 0,0.14552 0.0525,0.26459 0.11669,0.26459 0.0642,0 0.19026,-0.11907 0.2802,-0.26459 z m 1.81521,-0.20248 c -0.21839,-0.14082 -0.20016,-0.28841 0.0661,-0.53555 0.23636,-0.21936 0.3676,-0.2374 0.3676,-0.0505 0,0.15984 0.12943,0.21063 0.28763,0.11286 0.20322,-0.12559 0.20505,-0.26037 0.006,-0.45916 -0.1988,-0.19879 -0.43855,-0.13916 -0.8168,0.20317 -0.65803,0.59549 -0.68437,0.933 -0.0724,0.92764 0.29507,-0.003 0.35368,-0.0746 0.16158,-0.19843 z m 13.20352,0.0162 c -0.32541,-0.0628 -0.92073,-0.0644 -1.32291,-0.004 -0.40218,0.0608 -0.13593,0.11219 0.59168,0.11419 0.72759,0.002 1.05665,-0.0478 0.73123,-0.11058 z m -22.82395,-0.4596 c 0,-0.0642 -0.11907,-0.19026 -0.26458,-0.2802 -0.14553,-0.0899 -0.26459,-0.0374 -0.26459,0.11668 0,0.15411 0.11906,0.2802 0.26459,0.2802 0.14551,0 0.26458,-0.0525 0.26458,-0.11668 z m 13.48567,-0.21181 c 0.2955,0.18313 0.53725,0.22564 0.53725,0.0944 0,-0.35293 -0.79587,-0.5947 -1.36403,-0.41437 -0.27266,0.0865 -0.41959,0.28054 -0.32653,0.43112 0.10863,0.17576 0.2492,0.14526 0.39264,-0.0852 0.18191,-0.29225 0.3233,-0.29708 0.76067,-0.026 z m 2.7862,1e-5 0.52918,0.0552 -0.52918,-0.22362 c -0.58942,-0.24909 -1.19062,-0.1096 -1.19062,0.27624 0,0.13854 0.14882,0.15854 0.33074,0.0444 0.18189,-0.1141 0.56884,-0.18261 0.85988,-0.15226 z m -7.43305,-0.24069 c -0.0763,-0.12352 0.007,-0.22458 0.18549,-0.22458 0.17838,0 0.25878,-0.0655 0.1787,-0.14561 -0.0801,-0.0801 -0.54643,0.0254 -1.03629,0.23448 l -0.89067,0.38009 0.85077,-0.01 c 0.46794,-0.005 0.78834,-0.11096 0.712,-0.23448 z m 15.37055,0.04 c 0.0899,-0.14552 0.0445,-0.26458 -0.10106,-0.26458 -0.14551,0 -0.33817,0.11906 -0.42809,0.26458 -0.0899,0.14552 -0.0445,0.26458 0.10106,0.26458 0.14552,0 0.33815,-0.11906 0.42809,-0.26458 z m -4.70186,-0.42444 c -0.0879,-0.0879 -0.31613,-0.0973 -0.50712,-0.0209 -0.21106,0.0845 -0.14838,0.14715 0.15986,0.15985 0.27891,0.0115 0.43517,-0.0511 0.34726,-0.13897 z m -15.79275,7.22432 c -0.0199,-0.39709 0.74724,-1.67824 1.22874,-2.05209 0.45377,-0.35233 0.45658,-0.34391 0.0506,0.15156 -0.23645,0.28853 -0.61863,0.8818 -0.8493,1.31836 -0.23066,0.43656 -0.42416,0.69854 -0.42999,0.58217 z m 25.49656,-17.8749 c 0.53924,-0.60624 0.6866,-0.68472 0.6866,-0.36571 0,0.11052 -0.26789,0.36551 -0.59531,0.56665 -0.59322,0.36441 -0.59353,0.36369 -0.0913,-0.20094 z m 1.34805,-0.9835 c 0.62582,-0.47309 0.68163,-2.09756 0.19522,-5.68163 -0.6246,-4.60229 -0.9221,-7.41804 -0.79698,-7.54315 0.23563,-0.23562 1.51122,7.32564 1.90754,11.30713 0.14715,1.47837 0.1364,1.5085 -0.68493,1.91823 -1.04554,0.52159 -1.31126,0.52134 -0.62085,-5.3e-4 z m 2.10045,-0.76334 c -0.0885,-0.27293 -1.05261,-6.30999 -1.81865,-11.38752 -0.21956,-1.4552 -0.64066,-4.23759 -0.9358,-6.18309 -0.29514,-1.94549 -0.52755,-3.73143 -0.51649,-3.96875 0.0307,-0.65733 0.73049,1.31982 0.75349,2.12875 0.0111,0.38948 0.24751,1.87776 0.52544,3.30729 0.27791,1.42953 0.57769,3.19445 0.66617,3.92205 0.0885,0.72761 0.27527,1.8587 0.41509,2.51355 0.13981,0.65484 0.44201,2.38125 0.67152,3.83645 0.22952,1.45521 0.55591,3.22581 0.72533,3.93467 0.3531,1.47733 1.16957,2.22168 1.96816,1.79428 0.28978,-0.15508 0.86317,-0.17378 1.40681,-0.0459 0.78285,0.18418 0.82046,0.22406 0.25618,0.27148 -2.10567,0.17694 -4.0387,0.11906 -4.11725,-0.12328 z m -3.07292,-14.78101 c -0.0984,-0.48282 -0.0616,-0.6568 0.10411,-0.49113 0.1411,0.1411 0.20968,0.47755 0.15244,0.74767 -0.0771,0.36375 -0.14364,0.29722 -0.25655,-0.25654 z m -0.44095,-4.14713 c 0,-0.3638 0.06,-0.51263 0.13344,-0.33073 0.0734,0.1819 0.0734,0.47956 0,0.66146 -0.0734,0.1819 -0.13344,0.0331 -0.13344,-0.33073 z"
         style="fill:#000000;stroke-width:0.99999994" />
    </clipPath>
    <clipPath
       clipPathUnits="userSpaceOnUse"
       id="clipPath4865">
      <circle
         r="63.55294"
         cy="250.07802"
         cx="-513.99463"
         id="circle4867"
         style="opacity:1;fill:none;fill-opacity:1;stroke:#000000;stroke-width:0.11337688;stroke-linecap:round;stroke-linejoin:round;stroke-miterlimit:4;stroke-dasharray:none;stroke-opacity:1" />
    </clipPath>
    <clipPath
       clipPathUnits="userSpaceOnUse"
       id="clipPath4945">
      <g
         id="g4955"
         transform="matrix(0,0.79864297,-0.79864297,0,-581.9342,1394.0401)">
        <rect
           ry="2.7364285"
           rx="2.4265978"
           y="266.50961"
           x="-1373.8114"
           height="58.78611"
           width="85.410065"
           id="rect4947"
           style="opacity:1;fill:#ffffff;fill-opacity:1;stroke:none;stroke-width:0.26458332;stroke-linecap:round;stroke-linejoin:round;stroke-miterlimit:4;stroke-dasharray:none;stroke-opacity:1" />
        <rect
           style="opacity:1;fill:#3e3e3e;fill-opacity:1;stroke:none;stroke-width:2.27005982;stroke-linecap:round;stroke-linejoin:round;stroke-miterlimit:4;stroke-dasharray:none;stroke-opacity:1"
           id="rect4949"
           width="74.157913"
           height="54.910622"
           x="-1368.9312"
           y="268.44736"
           rx="0.52916664"
           ry="0.52916664" />
        <circle
           r="1.7235069"
           cy="295.90268"
           cx="-1291.2421"
           id="circle4951"
           style="opacity:1;fill:none;fill-opacity:1;stroke:#6a6a6a;stroke-width:0.2193554;stroke-linecap:round;stroke-linejoin:round;stroke-miterlimit:4;stroke-dasharray:none;stroke-opacity:1" />
        <circle
           r="0.64049715"
           cy="295.90268"
           cx="-1371.2355"
           id="circle4953"
           style="opacity:1;fill:#3e3e3e;fill-opacity:1;stroke:none;stroke-width:0.2305672;stroke-linecap:round;stroke-linejoin:round;stroke-miterlimit:4;stroke-dasharray:none;stroke-opacity:1" />
      </g>
    </clipPath>
    <clipPath
       clipPathUnits="userSpaceOnUse"
       id="clipPath5258">
      <g
         id="g5274"
         transform="translate(-1.1875e-5,-1.2916666e-6)">
        <rect
           style="opacity:1;fill:#ffffff;fill-opacity:1;stroke:none;stroke-width:0.26190639;stroke-linecap:round;stroke-linejoin:round;stroke-miterlimit:4;stroke-dasharray:none;stroke-opacity:1"
           id="rect5260"
           width="32.127975"
           height="66.334816"
           x="-1247.869"
           y="292.35089"
           rx="3.8334517"
           ry="4.0261021" />
        <rect
           style="opacity:1;fill:#3e3e3e;fill-opacity:1;stroke:none;stroke-width:0.27262759;stroke-linecap:round;stroke-linejoin:round;stroke-miterlimit:4;stroke-dasharray:none;stroke-opacity:1"
           id="rect5262"
           width="29.266012"
           height="53.632244"
           x="-1246.5498"
           y="298.41406"
           rx="0.52916664"
           ry="0.5618329" />
        <circle
           style="opacity:1;fill:none;fill-opacity:1;stroke:#6a6a6a;stroke-width:0.25405139;stroke-linecap:round;stroke-linejoin:round;stroke-miterlimit:4;stroke-dasharray:none;stroke-opacity:1"
           id="circle5264"
           cx="354.86835"
           cy="1231.8051"
           r="1.9961182"
           transform="rotate(90)" />
        <g
           id="g5272"
           transform="translate(-52.916669)">
          <circle
             r="0.59058779"
             cy="296.33145"
             cx="-1184.1213"
             id="circle5266"
             style="opacity:1;fill:#3e3e3e;fill-opacity:1;stroke:none;stroke-width:0.26458332;stroke-linecap:round;stroke-linejoin:round;stroke-miterlimit:4;stroke-dasharray:none;stroke-opacity:1" />
          <circle
             r="0.34254089"
             cy="294.13446"
             cx="-1178.877"
             id="circle5268"
             style="opacity:1;fill:#3e3e3e;fill-opacity:1;stroke:none;stroke-width:0.26458332;stroke-linecap:round;stroke-linejoin:round;stroke-miterlimit:4;stroke-dasharray:none;stroke-opacity:1" />
          <path
             inkscape:connector-curvature="0"
             id="path5270"
             d="m -1181.511,296.39051 h 5.1972"
             style="fill:none;stroke:#3e3e3e;stroke-width:0.5291667;stroke-linecap:round;stroke-linejoin:round;stroke-miterlimit:4;stroke-dasharray:none;stroke-opacity:1" />
        </g>
      </g>
    </clipPath>
    <clipPath
       clipPathUnits="userSpaceOnUse"
       id="clipPath5473">
      <g
         id="g5487"
         transform="translate(-175.91214,4.0824831)">
        <path
           style="opacity:1;fill:#eeeeee;fill-opacity:1;stroke:none;stroke-width:0.40156576;stroke-linecap:round;stroke-linejoin:round;stroke-miterlimit:4;stroke-dasharray:none;stroke-opacity:1"
           d="m -748.45722,359.40085 h 15.86181 l 5.29167,11.45918 h -26.44515 z"
           id="path5475"
           inkscape:connector-curvature="0"
           sodipodi:nodetypes="ccccc" />
        <path
           id="path5477"
           d="m -797.21397,278.97079 c -1.7589,0 -3.175,1.41605 -3.175,3.17501 v 68.4325 h 119.7255 v -68.4325 c 0,-1.75896 -1.416,-3.17501 -3.175,-3.17501 z"
           style="opacity:1;fill:#242424;fill-opacity:1;stroke:none;stroke-width:0.65433294;stroke-linecap:round;stroke-linejoin:round;stroke-miterlimit:4;stroke-dasharray:none;stroke-opacity:1"
           inkscape:connector-curvature="0" />
        <rect
           style="opacity:1;fill:#3e3e3e;fill-opacity:1;stroke:none;stroke-width:0.26512414;stroke-linecap:round;stroke-linejoin:round;stroke-miterlimit:4;stroke-dasharray:none;stroke-opacity:1"
           id="rect5479"
           width="110.84152"
           height="62.082588"
           x="-795.87238"
           y="283.67661"
           rx="0.53052348"
           ry="0.52997333" />
        <path
           inkscape:connector-curvature="0"
           style="opacity:1;fill:#ffffff;fill-opacity:1;stroke:none;stroke-width:0.65433294;stroke-linecap:round;stroke-linejoin:round;stroke-miterlimit:4;stroke-dasharray:none;stroke-opacity:1"
           d="m -800.38909,350.5783 v 7.15461 c 0,1.75895 1.41605,3.175 3.175,3.175 h 113.37549 c 1.75895,0 3.175,-1.41605 3.175,-3.175 v -7.15461 z"
           id="path5481" />
        <circle
           style="opacity:1;fill:#3e3e3e;fill-opacity:1;stroke:none;stroke-width:0.16324362;stroke-linecap:round;stroke-linejoin:round;stroke-miterlimit:4;stroke-dasharray:none;stroke-opacity:1"
           id="circle5483"
           cx="-740.52631"
           cy="281.2196"
           r="0.69961554" />
        <rect
           style="opacity:1;fill:#ffffff;fill-opacity:1;stroke:none;stroke-width:0.18990217;stroke-linecap:round;stroke-linejoin:round;stroke-miterlimit:4;stroke-dasharray:none;stroke-opacity:1"
           id="rect5485"
           width="44.099472"
           height="2.2717907"
           x="-762.57605"
           y="369.85773"
           rx="0.52916664"
           ry="0.27260098" />
      </g>
    </clipPath>
  </defs>
  <sodipodi:namedview
     id="base"
     pagecolor="#ffffff"
     bordercolor="#666666"
     borderopacity="1.0"
     inkscape:pageopacity="0.0"
     inkscape:pageshadow="2"
     inkscape:zoom="0.7"
     inkscape:cx="284.31477"
     inkscape:cy="201.61471"
     inkscape:document-units="mm"
     inkscape:current-layer="layer1"
     showgrid="false"
     units="px"
     fit-margin-top="1"
     fit-margin-right="1"
     fit-margin-bottom="1"
     fit-margin-left="1"
     inkscape:window-width="1920"
     inkscape:window-height="1017"
     inkscape:window-x="1272"
     inkscape:window-y="-8"
     inkscape:window-maximized="1"
     showguides="true"
     inkscape:guide-bbox="true" />
  <metadata
     id="metadata5">
    <rdf:RDF>
      <cc:Work
         rdf:about="">
        <dc:format>image/svg+xml</dc:format>
        <dc:type
           rdf:resource="http://purl.org/dc/dcmitype/StillImage" />
        <dc:title></dc:title>
      </cc:Work>
    </rdf:RDF>
  </metadata>
  <g
     inkscape:label="Layer 1"
     inkscape:groupmode="layer"
     id="layer1"
     transform="translate(829.45612,-278.70621)">
    <g
       id="g5576">
      <g
         id="g5497">
        <g
           id="g5457">
          <path
             sodipodi:nodetypes="ccccc"
             inkscape:connector-curvature="0"
             id="rect5442"
             d="m -748.45722,359.40085 h 15.86181 l 5.29167,11.45918 h -26.44515 z"
             style="opacity:1;fill:#eeeeee;fill-opacity:1;stroke:none;stroke-width:0.40156576;stroke-linecap:round;stroke-linejoin:round;stroke-miterlimit:4;stroke-dasharray:none;stroke-opacity:1" />
          <path
             inkscape:connector-curvature="0"
             style="opacity:1;fill:#242424;fill-opacity:1;stroke:none;stroke-width:0.65433294;stroke-linecap:round;stroke-linejoin:round;stroke-miterlimit:4;stroke-dasharray:none;stroke-opacity:1"
             d="m -797.21397,278.97079 c -1.7589,0 -3.175,1.41605 -3.175,3.17501 v 68.4325 h 119.7255 v -68.4325 c 0,-1.75896 -1.416,-3.17501 -3.175,-3.17501 z"
             id="path4997" />
          <rect
             ry="0.52997333"
             rx="0.53052348"
             y="283.67661"
             x="-795.87238"
             height="62.082588"
             width="110.84152"
             id="rect4985"
             style="opacity:1;fill:#3e3e3e;fill-opacity:1;stroke:none;stroke-width:0.26512414;stroke-linecap:round;stroke-linejoin:round;stroke-miterlimit:4;stroke-dasharray:none;stroke-opacity:1" />
          <path
             id="rect4981"
             d="m -800.38909,350.5783 v 7.15461 c 0,1.75895 1.41605,3.175 3.175,3.175 h 113.37549 c 1.75895,0 3.175,-1.41605 3.175,-3.175 v -7.15461 z"
             style="opacity:1;fill:#ffffff;fill-opacity:1;stroke:none;stroke-width:0.65433294;stroke-linecap:round;stroke-linejoin:round;stroke-miterlimit:4;stroke-dasharray:none;stroke-opacity:1"
             inkscape:connector-curvature="0" />
          <circle
             r="0.69961554"
             cy="281.2196"
             cx="-740.52631"
             id="path5069"
             style="opacity:1;fill:#3e3e3e;fill-opacity:1;stroke:none;stroke-width:0.16324362;stroke-linecap:round;stroke-linejoin:round;stroke-miterlimit:4;stroke-dasharray:none;stroke-opacity:1" />
          <rect
             ry="0.27260098"
             rx="0.52916664"
             y="369.85773"
             x="-762.57605"
             height="2.2717907"
             width="44.099472"
             id="rect5440"
             style="opacity:1;fill:#ffffff;fill-opacity:1;stroke:none;stroke-width:0.18990217;stroke-linecap:round;stroke-linejoin:round;stroke-miterlimit:4;stroke-dasharray:none;stroke-opacity:1" />
        </g>
        <path
           sodipodi:nodetypes="ccccc"
           clip-path="url(#clipPath5473)"
           inkscape:connector-curvature="0"
           id="path5031"
           d="m -940.18756,375.5866 65.19244,-103.38448 62.84664,2.52606 -54.97924,155.51008 z"
           style="fill:#2f2f2f;fill-opacity:0.14572868;stroke:none;stroke-width:0.46870825px;stroke-linecap:butt;stroke-linejoin:miter;stroke-opacity:1"
           transform="translate(175.91213,-4.0824827)" />
      </g>
      <g
         transform="rotate(12.405691,-754.39163,1020.1866)"
         id="g5102">
        <g
           id="g4909"
           transform="matrix(0,0.79864297,-0.79864297,0,-581.9342,1394.0401)">
          <rect
             ry="2.7364285"
             rx="2.4265978"
             y="266.50961"
             x="-1373.8114"
             height="58.78611"
             width="85.410065"
             id="rect4886"
             style="opacity:1;fill:#ffffff;fill-opacity:1;stroke:none;stroke-width:0.26458332;stroke-linecap:round;stroke-linejoin:round;stroke-miterlimit:4;stroke-dasharray:none;stroke-opacity:1" />
          <rect
             style="opacity:1;fill:#3e3e3e;fill-opacity:1;stroke:none;stroke-width:2.27005982;stroke-linecap:round;stroke-linejoin:round;stroke-miterlimit:4;stroke-dasharray:none;stroke-opacity:1"
             id="rect4888"
             width="74.157913"
             height="54.910622"
             x="-1368.9312"
             y="268.44736"
             rx="0.52916664"
             ry="0.52916664" />
          <circle
             r="1.7235069"
             cy="295.90268"
             cx="-1291.2421"
             id="path4901"
             style="opacity:1;fill:none;fill-opacity:1;stroke:#6a6a6a;stroke-width:0.2193554;stroke-linecap:round;stroke-linejoin:round;stroke-miterlimit:4;stroke-dasharray:none;stroke-opacity:1" />
          <circle
             r="0.64049715"
             cy="295.90268"
             cx="-1371.2355"
             id="path4903"
             style="opacity:1;fill:#3e3e3e;fill-opacity:1;stroke:none;stroke-width:0.2305672;stroke-linecap:round;stroke-linejoin:round;stroke-miterlimit:4;stroke-dasharray:none;stroke-opacity:1" />
        </g>
        <g
           transform="matrix(0,0.79864297,-0.79864297,0,-581.9342,1394.0401)"
           id="g4921">
          <rect
             style="opacity:1;fill:#ffffff;fill-opacity:1;stroke:none;stroke-width:0.26458332;stroke-linecap:round;stroke-linejoin:round;stroke-miterlimit:4;stroke-dasharray:none;stroke-opacity:1"
             id="rect4913"
             width="85.410065"
             height="58.78611"
             x="-1373.8114"
             y="266.50961"
             rx="2.4265978"
             ry="2.7364285" />
          <rect
             ry="0.52916664"
             rx="0.52916664"
             y="268.44736"
             x="-1368.9312"
             height="54.910622"
             width="74.157913"
             id="rect4915"
             style="opacity:1;fill:#3e3e3e;fill-opacity:1;stroke:none;stroke-width:2.27005982;stroke-linecap:round;stroke-linejoin:round;stroke-miterlimit:4;stroke-dasharray:none;stroke-opacity:1" />
          <circle
             style="opacity:1;fill:none;fill-opacity:1;stroke:#6a6a6a;stroke-width:0.2193554;stroke-linecap:round;stroke-linejoin:round;stroke-miterlimit:4;stroke-dasharray:none;stroke-opacity:1"
             id="circle4917"
             cx="-1291.2421"
             cy="295.90268"
             r="1.7235069" />
          <circle
             style="opacity:1;fill:#3e3e3e;fill-opacity:1;stroke:none;stroke-width:0.2305672;stroke-linecap:round;stroke-linejoin:round;stroke-miterlimit:4;stroke-dasharray:none;stroke-opacity:1"
             id="circle4919"
             cx="-1371.2355"
             cy="295.90268"
             r="0.64049715" />
        </g>
        <path
           style="fill:#2f2f2f;fill-opacity:0.14572868;stroke:none;stroke-width:0.26928872px;stroke-linecap:butt;stroke-linejoin:miter;stroke-opacity:1"
           d="m -825.87613,368.12989 19.37205,-75.77109 55.61864,14.97058 -31.58743,89.34579 z"
           id="path4911"
           inkscape:connector-curvature="0"
           clip-path="url(#clipPath4945)"
           sodipodi:nodetypes="ccccc" />
      </g>
      <g
         transform="matrix(0.6948904,-0.23437881,0.23437881,0.6948904,-31.359728,-169.69694)"
         id="g5285">
        <g
           id="g5240">
          <rect
             ry="4.0261021"
             rx="3.8334517"
             y="292.35089"
             x="-1247.869"
             height="66.334816"
             width="32.127975"
             id="rect5163"
             style="opacity:1;fill:#ffffff;fill-opacity:1;stroke:none;stroke-width:0.26190639;stroke-linecap:round;stroke-linejoin:round;stroke-miterlimit:4;stroke-dasharray:none;stroke-opacity:1" />
          <rect
             ry="0.5618329"
             rx="0.52916664"
             y="298.41406"
             x="-1246.5498"
             height="53.632244"
             width="29.266012"
             id="rect5165"
             style="opacity:1;fill:#3e3e3e;fill-opacity:1;stroke:none;stroke-width:0.27262759;stroke-linecap:round;stroke-linejoin:round;stroke-miterlimit:4;stroke-dasharray:none;stroke-opacity:1" />
          <circle
             transform="rotate(90)"
             r="1.9961182"
             cy="1231.8051"
             cx="354.86835"
             id="circle5183"
             style="opacity:1;fill:none;fill-opacity:1;stroke:#6a6a6a;stroke-width:0.25405139;stroke-linecap:round;stroke-linejoin:round;stroke-miterlimit:4;stroke-dasharray:none;stroke-opacity:1" />
          <g
             transform="translate(-52.916669)"
             id="g5217">
            <circle
               style="opacity:1;fill:#3e3e3e;fill-opacity:1;stroke:none;stroke-width:0.26458332;stroke-linecap:round;stroke-linejoin:round;stroke-miterlimit:4;stroke-dasharray:none;stroke-opacity:1"
               id="path5208"
               cx="-1184.1213"
               cy="296.33145"
               r="0.59058779" />
            <circle
               style="opacity:1;fill:#3e3e3e;fill-opacity:1;stroke:none;stroke-width:0.26458332;stroke-linecap:round;stroke-linejoin:round;stroke-miterlimit:4;stroke-dasharray:none;stroke-opacity:1"
               id="path5210"
               cx="-1178.877"
               cy="294.13446"
               r="0.34254089" />
            <path
               style="fill:none;stroke:#3e3e3e;stroke-width:0.5291667;stroke-linecap:round;stroke-linejoin:round;stroke-miterlimit:4;stroke-dasharray:none;stroke-opacity:1"
               d="m -1181.511,296.39051 h 5.1972"
               id="path5212"
               inkscape:connector-curvature="0" />
          </g>
        </g>
        <path
           style="fill:#2f2f2f;fill-opacity:0.14572868;stroke:none;stroke-width:0.26928872px;stroke-linecap:butt;stroke-linejoin:miter;stroke-opacity:1"
           d="m -1238.3661,363.92955 19.3721,-75.77109 55.6186,14.97058 -31.5874,89.34579 z"
           id="path5219"
           inkscape:connector-curvature="0"
           clip-path="url(#clipPath5258)"
           sodipodi:nodetypes="ccccc" />
      </g>
    </g>
  </g>
</svg>
